<svg aria-hidden="true" xmlns="http://www.w3.org/2000/svg" viewBox="0 0 24 24" fill="none">
  <g class="luxe-tea-menu-icon__sprig">
    <path
      class="luxe-tea-menu-icon__stem"
      d="M12 17.5V20.75"
      stroke="currentColor"
      stroke-width="1.35"
      stroke-linecap="round"
    />
    <g class="luxe-tea-menu-icon__leaf" transform="translate(12 15) rotate(-44) translate(-10 -10) scale(0.5)">
      <path
        d="M10 2.5c-2.2 2.8-4.5 4.2-6.5 6.2-.8.8-.8 2.1 0 2.9.8.8 2.1.8 2.9 0 1.2-1.2 2.1-2.4 3.6-2.4s2.4 1.2 3.6 2.4c.8.8 2.1.8 2.9 0 .8-.8.8-2.1 0-2.9-2-2-4.3-3.4-6.5-6.2z"
        stroke="currentColor"
        stroke-width="1.35"
        stroke-linejoin="round"
      />
      <path d="M10 17.5V12.75" stroke="currentColor" stroke-width="1.15" stroke-linecap="round"/>
    </g>
    <g class="luxe-tea-menu-icon__leaf" transform="translate(12 15) rotate(44) translate(-10 -10) scale(0.5)">
      <path
        d="M10 2.5c-2.2 2.8-4.5 4.2-6.5 6.2-.8.8-.8 2.1 0 2.9.8.8 2.1.8 2.9 0 1.2-1.2 2.1-2.4 3.6-2.4s2.4 1.2 3.6 2.4c.8.8 2.1.8 2.9 0 .8-.8.8-2.1 0-2.9-2-2-4.3-3.4-6.5-6.2z"
        stroke="currentColor"
        stroke-width="1.35"
        stroke-linejoin="round"
      />
      <path d="M10 17.5V12.75" stroke="currentColor" stroke-width="1.15" stroke-linecap="round"/>
    </g>
    <g class="luxe-tea-menu-icon__leaf luxe-tea-menu-icon__leaf--featured" transform="translate(2 0.75) scale(0.95)">
      <path
        d="M10 2.5c-2.2 2.8-4.5 4.2-6.5 6.2-.8.8-.8 2.1 0 2.9.8.8 2.1.8 2.9 0 1.2-1.2 2.1-2.4 3.6-2.4s2.4 1.2 3.6 2.4c.8.8 2.1.8 2.9 0 .8-.8.8-2.1 0-2.9-2-2-4.3-3.4-6.5-6.2z"
        stroke="currentColor"
        stroke-width="1.35"
        stroke-linejoin="round"
      />
      <path d="M10 17.5V11.25" stroke="currentColor" stroke-width="1.15" stroke-linecap="round"/>
    </g>
  </g>
</svg>
