<svg aria-hidden="true" xmlns="http://www.w3.org/2000/svg" viewBox="0 0 20 20" fill="none">
  <path d="M4.25 7.25h11.5l-1.1 6.35a1 1 0 0 1-.98.82H6.33a1 1 0 0 1-.98-.82L4.25 7.25z" stroke="currentColor" stroke-linejoin="round" stroke-width="var(--icon-stroke-width)"/>
  <path d="M7.25 7.25V5.75c0-.85.65-1.55 1.5-1.55h2.5c.85 0 1.5.7 1.5 1.55v1.5" stroke="currentColor" stroke-linecap="round" stroke-width="var(--icon-stroke-width)"/>
  <path d="M8 10.25h4" stroke="currentColor" stroke-linecap="round" stroke-width="var(--icon-stroke-width)"/>
  <path d="M12.75 4.1c.35-.35.8-.55 1.3-.55.95 0 1.7.75 1.7 1.7 0 .5-.2.95-.55 1.3" stroke="currentColor" stroke-width="var(--icon-stroke-width)" stroke-linecap="round"/>
</svg>
