<svg aria-hidden="true" xmlns="http://www.w3.org/2000/svg" viewBox="0 0 20 20" fill="none">
  <g transform="translate(10 10.35) scale(1.22) translate(-10 -10.35)">
    <g class="luxe-tea-cart-icon__basket">
      <path
        d="M6.5 8.75V7.15c0-.75.65-1.35 1.45-1.35"
        stroke="currentColor"
        stroke-width="var(--icon-stroke-width)"
        stroke-linecap="round"
      />
      <path
        d="M13.5 8.75V7.15c0-.75-.65-1.35-1.45-1.35"
        stroke="currentColor"
        stroke-width="var(--icon-stroke-width)"
        stroke-linecap="round"
      />
      <path d="M5 9h10" stroke="currentColor" stroke-width="var(--icon-stroke-width)" stroke-linecap="round"/>
      <path
        d="M5 9l-.8 5.55a.95.95 0 0 0 .94 1.1h9.72a.95.95 0 0 0 .94-1.1L15 9"
        stroke="currentColor"
        stroke-width="var(--icon-stroke-width)"
        stroke-linejoin="round"
      />
      <path d="M6.25 11.75h7.5" stroke="currentColor" stroke-width="var(--icon-stroke-width)" stroke-linecap="round"/>
    </g>
    <g class="luxe-tea-cart-icon__tea">
      <path
        d="M9.35 11.85c-.55.72-1.05 1.12-1.55 1.62-.2.2-.2.5 0 .7.2.2.5.2.7 0 .35-.35.6-.58.95-.58.35 0 .6.23.95.58.2.2.5.2.7 0 .2-.2.2-.5 0-.7-.5-.5-1-.9-1.55-1.62z"
        stroke="currentColor"
        stroke-width="1.1"
        stroke-linejoin="round"
      />
      <path
        d="M11.65 12.35c-.48.62-.92.98-1.38 1.42-.18.18-.18.45 0 .63.18.18.45.18.63 0 .3-.3.54-.48.84-.48.3 0 .54.18.84.48.18.18.45.18.63 0 .18-.18.18-.45 0-.63-.46-.44-.9-.8-1.38-1.42z"
        stroke="currentColor"
        stroke-width="1"
        stroke-linejoin="round"
      />
    </g>
  </g>
</svg>
