<svg aria-hidden="true" xmlns="http://www.w3.org/2000/svg" viewBox="0 0 24 24" fill="none">
  <g class="luxe-tea-menu-icon__bars">
    <path d="M2.5 7h9.5" stroke="currentColor" stroke-width="1.75" stroke-linecap="round"/>
    <path d="M2.5 12h9.5" stroke="currentColor" stroke-width="1.75" stroke-linecap="round"/>
    <path d="M2.5 17h9.5" stroke="currentColor" stroke-width="1.75" stroke-linecap="round"/>
  </g>
  <g class="luxe-tea-menu-icon__leaf-mark">
    <path
      d="M16.5 5.25c-1.35 1.65-2.55 2.45-3.75 3.55-.45.45-.45 1.15 0 1.6.45.45 1.15.45 1.6 0 .65-.65 1.1-1.1 1.75-1.1.65 0 1.1.45 1.75 1.1.45.45 1.15.45 1.6 0 .45-.45.45-1.15 0-1.6-1.2-1.1-2.4-1.9-3.75-3.55z"
      stroke="currentColor"
      stroke-width="1.45"
      stroke-linejoin="round"
    />
    <path d="M16.5 13.75V10" stroke="currentColor" stroke-width="1.25" stroke-linecap="round"/>
  </g>
</svg>
