<svg aria-hidden="true" xmlns="http://www.w3.org/2000/svg" viewBox="0 0 20 20" fill="none">
  <path d="M10 2.25c-1.25 1.55-2.35 2.35-3.45 3.45-.45.45-.45 1.15 0 1.6.45.45 1.15.45 1.6 0 .75-.75 1.25-1.25 2.1-1.25.85 0 1.35.5 2.1 1.25.45.45 1.15.45 1.6 0 .45-.45.45-1.15 0-1.6C12.35 4.6 11.25 3.8 10 2.25z" stroke="currentColor" stroke-width="var(--icon-stroke-width)" stroke-linejoin="round"/>
  <path d="M10 8.75V6.5" stroke="currentColor" stroke-width="var(--icon-stroke-width)" stroke-linecap="round"/>
  <path d="M4 11.75h12" stroke="currentColor" stroke-width="var(--icon-stroke-width)" stroke-linecap="round"/>
  <path d="M4 14.25h12" stroke="currentColor" stroke-width="var(--icon-stroke-width)" stroke-linecap="round"/>
  <path d="M4 16.75h12" stroke="currentColor" stroke-width="var(--icon-stroke-width)" stroke-linecap="round"/>
</svg>
