<svg aria-hidden="true" xmlns="http://www.w3.org/2000/svg" viewBox="0 0 24 24" fill="none">
  <path d="M3 7.5h11.5" stroke="currentColor" stroke-width="1.75" stroke-linecap="round"/>
  <path d="M3 12h11.5" stroke="currentColor" stroke-width="1.75" stroke-linecap="round"/>
  <path d="M3 16.5h11.5" stroke="currentColor" stroke-width="1.75" stroke-linecap="round"/>
  <path d="M17.25 4.75c-1.45 1.8-2.75 2.7-4 3.95-.5.5-.5 1.25 0 1.75.5.5 1.25.5 1.75 0 .78-.78 1.32-1.32 2.1-1.32.78 0 1.32.54 2.1 1.32.5.5 1.25.5 1.75 0 .5-.5.5-1.25 0-1.75-1.25-1.25-2.55-2.15-4-3.95z" stroke="currentColor" stroke-width="1.5" stroke-linejoin="round"/>
  <path d="M17.25 13.25V9.25" stroke="currentColor" stroke-width="1.5" stroke-linecap="round"/>
</svg>
